PathFileType  4	(X/Y/Z) C:\Users\antoi\Documents\MyRepositories\mobilecap\ResultsAnalysis
DataRate	CameraRate	NumFrames	NumMarkers	Units	OrigDataRate	OrigDataStartFrame	OrigNumFrames
100.0	100.0	4	51	mm	100.0	1	1288
Frame#	Time	r_knee			r_shank_antsup			r_ankle			r_calc			r_5meta			r_toe			L_knee			L_shank_antsup			L_ankle			L_calc			L_5meta			L_toe			r_sh2			r_sh3			r_sh4			L_sh2			L_sh3			r_thigh1			r_thigh2			r_thigh3			r_thigh4			r_thigh5			L_thigh1			L_thigh2			L_thigh3			L_thigh4			r.ASIS			r.PSIS			L.ASIS			L.PSIS			C7			R_Shoulder			L_Shoulder			R_Sternum			L_Sternum			R_humerus			R_elbow_med			R_elbow_lat			R_forearm			R_wrist_radius			R_wrist_ulna			L_humerus			L_elbow_med			L_elbow_lat			L_forearm			L_wrist_radius			L_wrist_ulna			R_HJC			L_HJC			R_HJC_reg			L_HJC_reg			
		X1	Y1	Z1	X2	Y2	Z2	X3	Y3	Z3	X4	Y4	Z4	X5	Y5	Z5	X6	Y6	Z6	X7	Y7	Z7	X8	Y8	Z8	X9	Y9	Z9	X10	Y10	Z10	X11	Y11	Z11	X12	Y12	Z12	X13	Y13	Z13	X14	Y14	Z14	X15	Y15	Z15	X16	Y16	Z16	X17	Y17	Z17	X18	Y18	Z18	X19	Y19	Z19	X20	Y20	Z20	X21	Y21	Z21	X22	Y22	Z22	X23	Y23	Z23	X24	Y24	Z24	X25	Y25	Z25	X26	Y26	Z26	X27	Y27	Z27	X28	Y28	Z28	X29	Y29	Z29	X30	Y30	Z30	X31	Y31	Z31	X32	Y32	Z32	X33	Y33	Z33	X34	Y34	Z34	X35	Y35	Z35	X36	Y36	Z36	X37	Y37	Z37	X38	Y38	Z38	X39	Y39	Z39	X40	Y40	Z40	X41	Y41	Z41	X42	Y42	Z42	X43	Y43	Z43	X44	Y44	Z44	X45	Y45	Z45	X46	Y46	Z46	X47	Y47	Z47	X48	Y48	Z48	X49	Y49	Z49	X50	Y50	Z50	X51	Y51	Z51	

1	0.00000000	-245.19089	471.23605	-410.83381	-243.33886	403.42703	-381.43013	-272.68912	94.91711	-395.39090	-338.64811	56.76027	-429.85615	-168.81407	45.09587	-362.26745	-125.73993	64.74001	-418.03729	-264.48219	461.15261	-757.65447	-246.41456	407.19629	-770.58945	-271.07516	95.46478	-788.06537	-338.86516	58.09028	-744.26061	-177.52032	42.24078	-820.31586	-127.68465	65.47751	-765.74695	-249.49558	290.26093	-368.40190	-316.83243	403.58767	-398.04535	-328.87801	287.99373	-388.96878	-334.90670	414.49378	-784.66096	-328.28124	293.44795	-801.27804	-146.03291	772.78540	-440.15294	-150.87259	662.56410	-420.35575	-203.67464	646.53754	-381.93237	-248.58630	783.77428	-390.10203	-256.95875	666.98545	-388.00974	-154.60840	732.78970	-756.68813	-170.04590	595.61956	-757.26350	-269.02422	747.03431	-778.22116	-276.84673	606.01487	-774.54263	-149.56280	921.88196	-458.99096	-329.40846	934.83234	-545.07196	-134.86368	903.11713	-717.60345	-326.60693	923.83766	-651.36187	-303.88506	1392.15545	-599.38465	-249.13063	1345.31908	-441.02286	-228.17126	1346.26635	-762.72128	-180.10362	1320.28601	-574.77213	-177.17602	1317.10631	-615.96521	-261.13295	1107.09256	-363.53176	-285.88943	1001.12438	-430.19754	-285.31045	1025.63309	-351.41574	-172.62331	1050.32972	-350.18149	-62.25644	1072.28125	-366.73703	-54.43555	1028.41906	-361.23881	-198.63612	1213.85777	-812.94395	-248.79459	997.02750	-769.40126	-252.77432	1008.20356	-841.11524	-142.08439	1033.49350	-847.26521	-27.39637	1054.24015	-823.89398	-17.22655	1017.84384	-825.93996	-214.54674	844.81168	-486.43440	-200.65225	832.93928	-685.89121	-209.51228	840.63047	-489.10461	-205.01994	823.00013	-659.54405	
2	0.01000000	-245.30849	471.30547	-410.77913	-243.43914	403.57249	-381.33909	-272.72537	94.87698	-395.40972	-338.62908	56.77881	-429.86991	-168.82009	45.06820	-362.31024	-125.71460	64.77759	-417.96525	-264.62575	461.09919	-757.48062	-246.51085	407.20227	-770.57349	-271.08976	95.47873	-788.10619	-338.85407	58.08431	-744.24140	-177.49338	42.31447	-820.33494	-127.68399	65.49693	-765.76434	-249.51843	290.31496	-368.43162	-316.92814	403.47955	-398.01633	-329.07088	288.02615	-389.08692	-335.00434	414.52634	-784.75855	-328.39687	293.55224	-801.39033	-146.20106	772.80150	-440.23758	-150.51949	662.12239	-420.78724	-203.84692	646.53560	-381.98984	-248.65094	783.79240	-390.11761	-257.09838	667.03762	-388.06632	-154.75850	732.80701	-756.67097	-170.27638	595.67306	-757.21238	-269.17244	747.04790	-778.20206	-277.04372	606.00869	-774.51730	-149.67031	921.78102	-459.11060	-329.51056	934.94200	-545.02499	-135.02555	903.10187	-717.56890	-326.71098	923.93542	-651.31816	-303.47497	1392.28609	-599.49908	-248.61269	1345.31386	-441.05697	-227.89447	1346.17271	-762.57757	-179.86674	1320.23547	-574.93976	-176.94716	1317.12017	-615.98110	-260.65063	1107.28896	-363.18072	-285.64184	1001.26474	-430.05058	-284.84633	1025.84737	-351.09851	-172.24053	1050.40511	-350.08664	-61.91465	1072.31877	-366.70525	-54.09192	1028.47654	-361.33757	-198.43802	1213.85420	-812.85067	-248.52413	997.20664	-769.32214	-252.64459	1008.26192	-841.05476	-141.86328	1033.51383	-847.37235	-27.24132	1054.14030	-824.04148	-17.00797	1017.80145	-826.20140	-214.70331	844.78623	-486.46016	-200.86923	832.95961	-685.92389	-209.72252	840.69598	-489.20589	-205.23629	823.05837	-659.53670	
3	0.02000000	-245.42860	471.32350	-410.73565	-243.54325	403.62810	-381.26974	-272.73250	94.86433	-395.40073	-338.62454	56.76797	-429.85352	-168.80324	45.05390	-362.30317	-125.71608	64.79579	-417.93212	-264.75962	461.11770	-757.38280	-246.59401	407.22725	-770.57056	-271.09458	95.49813	-788.11233	-338.85269	58.08413	-744.22935	-177.48197	42.35400	-820.33533	-127.68339	65.52601	-765.77932	-249.61883	290.33801	-368.42237	-316.98578	403.49223	-397.99113	-329.19994	288.01640	-389.10434	-335.14415	414.54639	-784.79992	-328.53874	293.60172	-801.40049	-146.39201	772.78206	-440.19597	-150.47783	661.97595	-420.95940	-203.97450	646.50268	-382.01876	-248.71256	783.84405	-390.09380	-257.22711	667.04257	-388.10443	-154.90556	732.81282	-756.59685	-170.47336	595.76194	-757.29975	-269.32112	747.05799	-778.18251	-277.21435	606.02074	-774.54378	-149.77537	921.73162	-459.13822	-329.60098	935.02194	-544.97743	-135.20658	903.12428	-717.58855	-326.84642	924.02514	-651.29455	-303.07147	1392.43422	-599.46570	-248.21824	1345.34939	-441.15417	-227.60210	1346.22136	-762.61169	-179.72201	1320.08954	-575.12634	-176.63112	1317.14210	-615.94767	-260.07912	1107.65506	-362.48091	-285.24722	1001.64023	-429.98271	-284.44729	1025.99244	-350.89818	-171.81947	1050.51466	-350.00273	-61.49946	1072.37400	-366.58580	-53.70634	1028.48010	-361.29821	-198.23995	1213.89350	-812.77395	-248.37272	997.32879	-769.25742	-252.51755	1008.28000	-840.89596	-141.68365	1033.53257	-847.46539	-27.03799	1053.95512	-823.99840	-16.81307	1017.66626	-826.26246	-214.84169	844.78145	-486.48104	-201.06921	833.00296	-685.95188	-209.87206	840.71910	-489.22076	-205.45916	823.10182	-659.54397	
4	0.03000000	-245.58404	471.31701	-410.68894	-243.66800	403.65807	-381.18529	-272.72100	94.86519	-395.37494	-338.62260	56.75911	-429.82770	-168.79127	45.05425	-362.30204	-125.72821	64.80784	-417.95032	-264.89891	461.21140	-757.39549	-246.67433	407.25959	-770.57225	-271.09458	95.52172	-788.08630	-338.85223	58.09030	-744.21406	-177.49205	42.35116	-820.31723	-127.67993	65.54958	-765.78411	-249.80636	290.30890	-368.38366	-317.07885	403.51337	-397.95849	-329.25296	287.94036	-389.02143	-335.32337	414.54373	-784.73302	-328.71968	293.57752	-801.26001	-146.57263	772.74399	-440.12870	-150.64858	661.99821	-420.93686	-204.09650	646.43580	-382.05352	-248.75834	783.90872	-390.01946	-257.35663	667.01559	-388.12993	-155.07458	732.84632	-756.57129	-170.66264	595.84741	-757.42621	-269.48118	747.08536	-778.22975	-277.37512	606.04432	-774.59891	-149.85849	921.72474	-459.07279	-329.67063	935.07602	-544.92823	-135.43514	903.13883	-717.60771	-327.00097	924.07861	-651.25664	-302.69845	1392.61802	-599.36255	-247.86181	1345.38375	-441.26727	-227.31667	1346.31012	-762.68675	-179.41163	1320.07071	-575.15025	-176.26196	1317.15782	-615.88127	-259.48874	1108.05219	-361.79593	-284.86568	1001.99112	-429.83691	-284.08689	1026.09209	-350.77924	-171.36265	1050.64099	-349.88347	-61.03950	1072.45188	-366.48794	-53.28122	1028.47197	-361.15095	-198.03532	1213.93148	-812.67200	-248.32271	997.36458	-769.19699	-252.38838	1008.26776	-840.68655	-141.54951	1033.52164	-847.50341	-26.81937	1053.72134	-823.85589	-16.64735	1017.46605	-826.26603	-214.96093	844.79512	-486.46133	-201.26297	833.02903	-685.93803	-209.98039	840.73228	-489.12095	-205.70271	823.11036	-659.49657	
